<svg width="64px" height="64px" viewBox="-2.88 -2.88 37.76 37.76" xmlns="http://www.w3.org/2000/svg" fill="none" stroke="#2296d2"><g id="SVGRepo_bgCarrier" stroke-width="0"><rect x="-2.88" y="-2.88" width="30.76" height="30.76" rx="18.88" fill="#e0e7eb" strokewidth="0"></rect></g><g id="SVGRepo_tracerCarrier" stroke-linecap="round" stroke-linejoin="round"></g><g id="SVGRepo_iconCarrier"> <path stroke="#2296d2" stroke-linejoin="round" stroke-width="1.472" d="M5 11c0-1 1-2 2-2h18c1 0 2 1 2 2v4h-2v10c0 1-1 2-2 2H9c-1 0-2-1-2-2V15H5v-4z"></path> <path stroke="#2296d2" stroke-linecap="round" stroke-linejoin="round" stroke-width="1.472" d="M7 15h18M16 9v18M16 9c-1.333-2.833-4.1-7.4-6.5-5-2.4 2.4 3 5 6.5 5zM16 9c0-4.5 4.5-7.5 6.5-5.5C25 6 20 9 16 9z"></path> </g></svg>