<svg viewBox="0 0 500 125.721" xmlns="http://www.w3.org/2000/svg" >        
<path fill="#000" style="stroke: rgb(0, 0, 0); stroke-width: 0px;" d="M -4.208 15.329 C -4.208 15.329 24.974 5.941 46.267 7.912 C 85.291 11.524 168.52 55.575 208.36 63.519 C 230.653 67.964 239.689 67.63 261.908 66.905 C 298.836 65.7 365.384 39.091 408.899 47.932 C 448.245 55.926 509.369 92.031 513.491 109.107 C 515.375 116.91 499.883 130.44 499.883 130.44 C 499.883 130.44 499.883 130.44 499.883 130.44 C 499.883 130.44 514.379 130.484 514.38 130.44 C 514.381 130.177 -2.879 124.943 -2.879 124.943 C -2.879 124.943 -2.879 124.943 -2.879 124.943 C -2.879 124.943 -2.873 125.63 -2.879 125.63 C -2.96 125.631 -6.185 15.958 -6.185 15.958" ></path>
</svg>